<svg width="44" height="77" viewBox="0 0 44 77" fill="none" xmlns="http://www.w3.org/2000/svg">
<path d="M38.5138 75.7983L42.2386 72.0137C42.736 71.5094 42.9872 70.9255 42.9936 70.263C43 69.6021 42.7603 69.0141 42.2728 68.5009L13.5746 38.2256L42.8555 8.47575C43.3529 7.97119 43.604 7.38764 43.6105 6.7259C43.6169 6.0639 43.3771 5.47591 42.8896 4.96272L39.2388 1.11197C38.7523 0.597715 38.1889 0.338498 37.5495 0.332719C36.9105 0.326944 36.3422 0.576735 35.8458 1.0813L1.12476 36.3565C0.628136 36.8607 0.376729 37.4446 0.370296 38.1063C0.363863 38.768 0.603887 39.3552 1.09062 39.8681L35.1198 75.7676C35.6065 76.2808 36.1699 76.5387 36.8086 76.5444C37.4481 76.5502 38.0164 76.3026 38.5138 75.7983Z" fill="#FF902E"/>
</svg>
