<svg width="44" height="77" viewBox="0 0 44 77" fill="none" xmlns="http://www.w3.org/2000/svg">
<path d="M4.84434 0.783967L1.13304 4.58232C0.63744 5.08845 0.388591 5.67313 0.384941 6.33554C0.3813 6.99634 0.623694 7.58327 1.11368 8.09443L29.9583 38.2503L0.783783 68.1082C0.288185 68.6146 0.0393359 69.199 0.0356904 69.8606C0.0320434 70.5225 0.274438 71.1094 0.76443 71.6206L4.43392 75.4562C4.92287 75.9684 5.4877 76.2253 6.1276 76.2286C6.767 76.2319 7.33462 75.9799 7.82919 75.4735L42.4241 40.0703C42.9189 39.5642 43.168 38.9795 43.1717 38.3179C43.1753 37.6563 42.9327 37.0702 42.4434 36.5593L8.24063 0.801335C7.75142 0.290175 7.18659 0.0345667 6.54745 0.0312984C5.90755 0.0280261 5.33993 0.277843 4.84434 0.783967Z" fill="#FF902E"/>
</svg>
